<svg width="449" height="71" viewBox="0 0 449 71" fill="none" xmlns="http://www.w3.org/2000/svg">
<g clip-path="url(#clip0)">
<path d="M179.556 50.9954L182.117 52.4587L182.19 52.3124C185.775 47.3372 187.677 41.4109 187.677 35.192C187.75 27.2171 184.751 19.7543 179.19 14.1939C173.63 8.56021 166.24 5.41415 158.338 5.41415C142.023 5.41415 128.707 18.73 128.707 35.0457C128.707 51.3613 141.95 64.604 158.265 64.604C161.119 64.604 163.826 64.2382 166.386 63.4334L166.533 63.3602L165.947 60.4336L165.728 60.5068C163.24 61.2384 160.68 61.6774 158.119 61.6774C143.486 61.6774 131.56 49.7517 131.56 35.1188C131.56 20.486 143.486 8.56021 158.119 8.56021C172.752 8.56021 184.677 20.486 184.677 35.1188C184.677 40.7525 182.921 46.1666 179.556 50.8491V50.9954Z" fill="#60B0F4"/>
<path d="M183.287 10.3893C176.629 3.65821 167.703 0 158.338 0C155.046 0 151.9 0.438985 148.9 1.31696L148.754 1.39012L149.266 4.09719L149.485 4.02403C152.412 3.21922 155.412 2.78024 158.338 2.78024C176.264 2.78024 190.896 17.3399 190.896 35.3383C190.896 53.3367 176.264 67.8232 158.338 67.8232C140.34 67.75 125.78 53.1172 125.78 35.192C125.78 28.3877 127.829 21.9493 131.78 16.3888L131.926 16.2425L129.512 14.8523L129.438 14.9987C125.195 20.925 123 27.9487 123 35.3383C123 54.7268 138.803 70.5303 158.192 70.5303C177.654 70.5303 193.53 54.7268 193.53 35.3383C193.53 25.9001 189.945 17.0473 183.287 10.3893Z" fill="#60B0F4"/>
<path d="M158.119 18.4374L138.584 31.5338L140.267 34.0214L144.144 31.3874V49.3858H172.386V31.5338L176.19 34.0214L177.873 31.5338L158.119 18.4374ZM163.313 38.7039C162.582 40.094 158.631 43.7522 158.338 44.118C157.899 43.679 154.095 40.094 153.363 38.777C153.363 38.777 151.388 36.3626 153.363 34.5335C153.363 34.5335 156.217 32.1191 158.338 35.4115C160.46 32.1191 163.313 34.5335 163.313 34.5335C165.289 36.2894 163.313 38.7039 163.313 38.7039Z" fill="#60B0F4"/>
<path d="M93.0249 39.4435V57H84.2313V13.0627H93.0249V30.6499H110.581V13.0627H119.375V57H110.581V39.4435H93.0249ZM241.351 25.625V57H232.589V25.625C232.589 25.0122 232.471 24.4403 232.236 23.9092C232.001 23.3781 231.685 22.9134 231.286 22.5151C230.888 22.1168 230.423 21.8053 229.892 21.5806C229.361 21.3559 228.789 21.2435 228.176 21.2435C227.564 21.2435 226.992 21.3559 226.461 21.5806C225.929 21.8053 225.465 22.1168 225.066 22.5151C224.668 22.9134 224.357 23.3781 224.132 23.9092C223.907 24.4403 223.795 25.0122 223.795 25.625V57H215.001V25.625C215.001 25.0122 214.889 24.4403 214.664 23.9092C214.44 23.3781 214.128 22.9134 213.73 22.5151C213.331 22.1168 212.867 21.8053 212.336 21.5806C211.805 21.3559 211.233 21.2435 210.62 21.2435C210.007 21.2435 209.435 21.3559 208.904 21.5806C208.373 21.8053 207.908 22.1168 207.51 22.5151C207.112 22.9134 206.8 23.3781 206.575 23.9092C206.351 24.4403 206.238 25.0122 206.238 25.625V57H197.445V25.625C197.445 23.807 197.787 22.0963 198.471 20.4929C199.156 18.8894 200.095 17.4902 201.29 16.2952C202.485 15.1003 203.884 14.1607 205.488 13.4764C207.091 12.7921 208.802 12.45 210.62 12.45C212.254 12.45 213.827 12.741 215.338 13.3232C216.85 13.9053 218.208 14.7479 219.413 15.851C220.619 14.7479 221.972 13.9053 223.473 13.3232C224.975 12.741 226.542 12.45 228.176 12.45C229.994 12.45 231.705 12.7921 233.309 13.4764C234.912 14.1607 236.311 15.1003 237.506 16.2952C238.701 17.4902 239.641 18.8894 240.325 20.4929C241.009 22.0963 241.351 23.807 241.351 25.625ZM279.314 48.2064V57H249.195V13.0627H279.314V21.8563H257.989V30.6499H272.42V39.4435H257.989V48.2064H279.314Z" fill="#60B0F4" stroke="#60B0F4" stroke-width="1.8825" stroke-miterlimit="10"/>
<path d="M14.2005 39.4085H31.8227V30.5974C31.8227 29.3899 31.5924 28.2488 31.1319 27.1743C30.6714 26.0998 30.0421 25.1634 29.2438 24.3652C28.4456 23.567 27.5092 22.9376 26.4347 22.4771C25.3602 22.0166 24.2192 21.7863 23.0116 21.7863C21.804 21.7863 20.663 22.0166 19.5885 22.4771C18.5139 22.9376 17.5776 23.567 16.7794 24.3652C15.9811 25.1634 15.3518 26.0998 14.8913 27.1743C14.4308 28.2488 14.2005 29.3899 14.2005 30.5974V39.4085ZM40.6338 30.5974V57H31.8227V48.1889H14.2005V57H5.4201V30.5974C5.4201 28.1618 5.88062 25.8746 6.80164 23.7358C7.72266 21.597 8.97627 19.7294 10.5625 18.1329C12.1487 16.5365 14.0112 15.2778 16.15 14.3568C18.2888 13.4357 20.576 12.9752 23.0116 12.9752C25.4472 12.9752 27.7344 13.4357 29.8732 14.3568C32.012 15.2778 33.8796 16.5365 35.4761 18.1329C37.0725 19.7294 38.3312 21.597 39.2523 23.7358C40.1733 25.8746 40.6338 28.1618 40.6338 30.5974ZM65.4399 21.7863V57H56.6595V21.7863H43.4276V12.9752H78.6412V21.7863H65.4399Z" fill="white" stroke="white" stroke-width="1.88625" stroke-miterlimit="10"/>
<path d="M319.89 34.9876C319.89 37.0139 319.629 38.9633 319.107 40.8361C318.585 42.7088 317.843 44.4588 316.881 46.0859C315.919 47.713 314.773 49.1969 313.442 50.5375C312.112 51.8781 310.628 53.0294 308.991 53.9913C307.353 54.9533 305.598 55.6952 303.726 56.2171C301.853 56.739 299.903 57 297.877 57H284.614V12.9752H297.877C299.903 12.9752 301.853 13.2362 303.726 13.7581C305.598 14.28 307.353 15.0219 308.991 15.9839C310.628 16.9458 312.112 18.0971 313.442 19.4377C314.773 20.7783 315.919 22.2622 316.881 23.8893C317.843 25.5164 318.585 27.2664 319.107 29.1391C319.629 31.0119 319.89 32.9614 319.89 34.9876ZM311.078 34.9876C311.078 33.166 310.736 31.457 310.05 29.8606C309.364 28.2642 308.423 26.8673 307.225 25.67C306.028 24.4726 304.626 23.526 303.02 22.8301C301.413 22.1343 299.699 21.7863 297.877 21.7863H293.487V48.1889H297.877C299.699 48.1889 301.413 47.8461 303.02 47.1604C304.626 46.4748 306.028 45.5333 307.225 44.336C308.423 43.1386 309.364 41.7366 310.05 40.13C310.736 38.5233 311.078 36.8092 311.078 34.9876ZM334.012 39.4085H351.634V30.5974C351.634 29.3899 351.404 28.2488 350.943 27.1743C350.483 26.0998 349.853 25.1634 349.055 24.3652C348.257 23.567 347.321 22.9376 346.246 22.4771C345.172 22.0166 344.03 21.7863 342.823 21.7863C341.615 21.7863 340.474 22.0166 339.4 22.4771C338.325 22.9376 337.389 23.567 336.591 24.3652C335.792 25.1634 335.163 26.0998 334.703 27.1743C334.242 28.2488 334.012 29.3899 334.012 30.5974V39.4085ZM360.445 30.5974V57H351.634V48.1889H334.012V57H325.231V30.5974C325.231 28.1618 325.692 25.8746 326.613 23.7358C327.534 21.597 328.788 19.7294 330.374 18.1329C331.96 16.5365 333.823 15.2778 335.961 14.3568C338.1 13.4357 340.387 12.9752 342.823 12.9752C345.259 12.9752 347.546 13.4357 349.685 14.3568C351.823 15.2778 353.691 16.5365 355.287 18.1329C356.884 19.7294 358.143 21.597 359.064 23.7358C359.985 25.8746 360.445 28.1618 360.445 30.5974ZM376.901 12.9752V57H368.09V12.9752H376.901ZM415.891 48.1889V57H385.067V12.9752H393.878V48.1889H415.891ZM434.618 43.2154V57H425.838V43.2154C423.893 42.7242 422.107 41.9362 420.48 40.8514C418.853 39.7667 417.456 38.4721 416.29 36.9678C415.123 35.4635 414.217 33.7954 413.573 31.9636C412.928 30.1318 412.606 28.2028 412.606 26.1765V12.9752H421.417V26.1765C421.417 27.3841 421.647 28.5251 422.107 29.5996C422.568 30.6742 423.197 31.6105 423.996 32.4088C424.794 33.207 425.73 33.8363 426.805 34.2968C427.879 34.7574 429.02 34.9876 430.228 34.9876C431.435 34.9876 432.576 34.7574 433.651 34.2968C434.725 33.8363 435.662 33.207 436.46 32.4088C437.258 31.6105 437.888 30.6742 438.348 29.5996C438.809 28.5251 439.039 27.3841 439.039 26.1765V12.9752H447.819V26.1765C447.819 28.2028 447.497 30.1318 446.852 31.9636C446.207 33.7954 445.302 35.4635 444.135 36.9678C442.969 38.4721 441.577 39.7667 439.96 40.8514C438.343 41.9362 436.562 42.7242 434.618 43.2154Z" fill="white" stroke="white" stroke-width="1.88625" stroke-miterlimit="10"/>
<path d="M286.317 2.03583L444.793 2.05595" stroke="#60B0F4" stroke-width="5.50988" stroke-linecap="round"/>
<path d="M2.09216 68.3523L73.3994 68.3735" stroke="#60B0F4" stroke-width="3.79163" stroke-linecap="round"/>
</g>
<defs>
<clipPath id="clip0">
<rect width="449" height="71" fill="white"/>
</clipPath>
</defs>
</svg>
