<svg width="32" height="32" viewBox="0 0 32 32" fill="none" xmlns="http://www.w3.org/2000/svg">
<path d="M25.6599 23.137L26.8217 23.8009L26.8549 23.7346C28.4815 21.4773 29.3445 18.7885 29.3445 15.9669C29.3777 12.3487 28.0167 8.96277 25.4939 6.43995C22.9711 3.88393 19.6184 2.45654 16.0333 2.45654C8.63085 2.45654 2.58936 8.49804 2.58936 15.9005C2.58936 23.303 8.59766 29.3113 16.0001 29.3113C17.2948 29.3113 18.523 29.1453 19.6848 28.7802L19.7512 28.747L19.4856 27.4192L19.386 27.4524C18.2574 27.7843 17.0956 27.9835 15.9338 27.9835C9.29475 27.9835 3.88396 22.5727 3.88396 15.9337C3.88396 9.29472 9.29475 3.88393 15.9338 3.88393C22.5728 3.88393 27.9836 9.29472 27.9836 15.9337C27.9836 18.4897 27.1869 20.9462 25.6599 23.0707V23.137Z" fill="#16181A"/>
<path d="M27.3527 4.71369C24.3319 1.65975 20.2822 0 16.0332 0C14.5394 0 13.112 0.19917 11.751 0.59751L11.6846 0.630705L11.917 1.85892L12.0166 1.82573C13.3444 1.46058 14.7054 1.26141 16.0332 1.26141C24.166 1.26141 30.805 7.86722 30.805 16.0332C30.805 24.1992 24.166 30.7718 16.0332 30.7718C7.86722 30.7386 1.26141 24.0996 1.26141 15.9668C1.26141 12.8797 2.19087 9.95851 3.9834 7.43569L4.04979 7.3693L2.95436 6.73859L2.92116 6.80498C0.995851 9.49378 0 12.6805 0 16.0332C0 24.8299 7.17013 32 15.9668 32C24.7967 32 32 24.8299 32 16.0332C32 11.751 30.3734 7.73444 27.3527 4.71369Z" fill="#16181A"/>
<path d="M15.9334 8.36523L7.07031 14.3071L7.8338 15.4358L9.59313 14.2408V22.4067H22.4064V14.3071L24.1326 15.4358L24.896 14.3071L15.9334 8.36523ZM18.2902 17.5603C17.9583 18.191 16.1657 19.8507 16.033 20.0167C15.8338 19.8175 14.1077 18.191 13.7757 17.5935C13.7757 17.5935 12.8794 16.498 13.7757 15.6681C13.7757 15.6681 15.0703 14.5727 16.033 16.0665C16.9956 14.5727 18.2902 15.6681 18.2902 15.6681C19.1865 16.4648 18.2902 17.5603 18.2902 17.5603Z" fill="#16181A"/>
</svg>
